<svg xmlns="http://www.w3.org/2000/svg" version="1.1" xmlns:xlink="http://www.w3.org/1999/xlink" viewBox="0 0 21.08627783741889 18.994466367857793"><g transform="matrix(0.850452986535639,0,0,0.850452986535639,2.9969777966640594,14.562809419010549)"><g transform="matrix(1,0,0,1,0,0)" clip-path="url(#SvgjsClipPath9375)"><g clip-path="url(#SvgjsClipPath93738d7bf97c-b44e-4cf5-8127-e8d9e6f14ca8)"><path d=" M 10.713175136057782 -13.78328921147233 L 10.713175136057782 -13.783529350751403 L 7.625944564287459 -7.616032246303895 L 8.16481710652864 -6.539727997495977 L 10.713175136057782 -11.630680713856496 L 10.713175136057782 -11.630680713856496 L 15.479939825668929 -2.1089181593088107 L 16.557444770872213 -2.1089181593088107 L 10.713175136057782 -13.78328921147233 Z" fill="url(#gradient-184366d9-202f-429e-bf92-36cec901105f_0)" transform="matrix(1,0,0,1,0,0)" fill-rule="nonzero"></path></g><g clip-path="url(#SvgjsClipPath93738d7bf97c-b44e-4cf5-8127-e8d9e6f14ca8)"><path d=" M 11.373318014231135 -7.540628512674781 L 8.792781321306128 -2.3855586088016096 L 5.091754752223659 -9.778966732919894 L 5.091754752223659 -9.778966732919894 L 2.004284041174264 -3.611469628472385 L 2.0045241804533376 -3.6107492106351646 L 1.6712108610991678 -2.9443627112058994 L 1.1887710494402866 -1.9806837842835048 L 2.266275994643572 -1.9806837842835048 L 5.457967152810914 -1.9806837842835048 L 5.940887243027943 -2.9443627112058994 L 2.7484756670233796 -2.9443627112058994 L 3.696785680085063 -4.837860926701309 L 3.6960652622478425 -4.837860926701309 L 5.091754752223659 -7.625877956745913 L 5.091754752223659 -7.625877956745913 L 8.253908779064947 -1.3090142207146194 L 8.249105993483475 -1.2996487888307495 L 8.258951703925494 -1.2996487888307495 L 8.783896167980405 -0.25000000000000355 L 11.90330540314659 -6.481374152681091 L 11.373318014231135 -7.540628512674781 Z" fill="url(#gradient-184366d9-202f-429e-bf92-36cec901105f_1)" transform="matrix(1,0,0,1,0,0)" fill-rule="nonzero"></path></g><g clip-path="url(#SvgjsClipPath93738d7bf97c-b44e-4cf5-8127-e8d9e6f14ca8)"><path d=" M 13.183728039167075 -9.565963192381602 L 13.183728039167075 -11.938779408907935 L 12.091814737219373 -11.938779408907935 L 12.091814737219373 -11.747868682044416 L 13.183728039167075 -9.565963192381602 Z" fill="url(#gradient-184366d9-202f-429e-bf92-36cec901105f_2)" transform="matrix(1,0,0,1,0,0)" fill-rule="nonzero"></path></g></g><g><path d=" M 0.045 1.005 L 0.045 0.9809999999999999 L 0.1395 0.9314999999999999 L 0.525 0.00749999999999984 L 0.6075 0.00749999999999984 L 0.9885 0.9269999999999999 L 1.089 0.9809999999999999 L 1.089 1.005 L 0.6930000000000001 1.005 L 0.6930000000000001 0.9809999999999999 L 0.8250000000000001 0.9284999999999999 L 0.714 0.6584999999999999 L 0.3525 0.6584999999999999 L 0.243 0.9299999999999999 L 0.369 0.9809999999999999 L 0.369 1.005 L 0.045 1.005 M 0.387 0.5759999999999998 L 0.681 0.5759999999999998 L 0.534 0.2144999999999999 L 0.387 0.5759999999999998 M 1.153428955078125 1.005 L 1.153428955078125 0.9809999999999999 L 1.247928955078125 0.9314999999999999 L 1.633428955078125 0.00749999999999984 L 1.715928955078125 0.00749999999999984 L 2.096928955078125 0.9269999999999999 L 2.197428955078125 0.9809999999999999 L 2.197428955078125 1.005 L 1.801428955078125 1.005 L 1.801428955078125 0.9809999999999999 L 1.9334289550781252 0.9284999999999999 L 1.822428955078125 0.6584999999999999 L 1.460928955078125 0.6584999999999999 L 1.3514289550781249 0.9299999999999999 L 1.477428955078125 0.9809999999999999 L 1.477428955078125 1.005 L 1.153428955078125 1.005 M 1.495428955078125 0.5759999999999998 L 1.789428955078125 0.5759999999999998 L 1.642428955078125 0.2144999999999999 L 1.495428955078125 0.5759999999999998 M 2.26185791015625 1.005 L 2.26185791015625 0.9809999999999999 L 2.35635791015625 0.9314999999999999 L 2.74185791015625 0.00749999999999984 L 2.82435791015625 0.00749999999999984 L 3.20535791015625 0.9269999999999999 L 3.30585791015625 0.9809999999999999 L 3.30585791015625 1.005 L 2.90985791015625 1.005 L 2.90985791015625 0.9809999999999999 L 3.04185791015625 0.9284999999999999 L 2.93085791015625 0.6584999999999999 L 2.56935791015625 0.6584999999999999 L 2.45985791015625 0.9299999999999999 L 2.5858579101562498 0.9809999999999999 L 2.5858579101562498 1.005 L 2.26185791015625 1.005 M 2.60385791015625 0.5759999999999998 L 2.89785791015625 0.5759999999999998 L 2.75085791015625 0.2144999999999999 L 2.60385791015625 0.5759999999999998 M 3.815830078125 1.005 L 3.815830078125 0.9809999999999999 L 3.937330078125 0.9209999999999999 L 3.937330078125 0.09899999999999987 L 3.815830078125 0.038999999999999924 L 3.815830078125 0.014999999999999902 L 4.568830078125 0.014999999999999902 L 4.568830078125 0.2729999999999999 L 4.544830078125 0.2729999999999999 L 4.447330078125 0.09749999999999992 L 4.094830078125 0.09749999999999992 L 4.094830078125 0.45299999999999985 L 4.343830078125 0.45299999999999985 L 4.420330078125 0.32699999999999985 L 4.444330078125 0.32699999999999985 L 4.444330078125 0.6584999999999999 L 4.420330078125 0.6584999999999999 L 4.343830078125 0.5354999999999999 L 4.094830078125 0.5354999999999999 L 4.094830078125 0.9224999999999999 L 4.4878300781250005 0.9224999999999999 L 4.586830078125 0.7244999999999999 L 4.610830078125 0.7244999999999999 L 4.610830078125 1.005 L 3.815830078125 1.005 M 4.798324951171875 1.005 L 4.798324951171875 0.9809999999999999 L 4.919824951171875 0.9209999999999999 L 4.919824951171875 0.10199999999999987 L 4.799824951171875 0.038999999999999924 L 4.799824951171875 0.014999999999999902 L 5.035324951171875 0.014999999999999902 L 5.609824951171875 0.7214999999999998 L 5.609824951171875 0.09749999999999992 L 5.455324951171875 0.038999999999999924 L 5.455324951171875 0.014999999999999902 L 5.834824951171875 0.014999999999999902 L 5.834824951171875 0.038999999999999924 L 5.714824951171875 0.09749999999999992 L 5.714824951171875 1.0125 L 5.650324951171875 1.0125 L 5.024824951171875 0.24449999999999983 L 5.024824951171875 0.9224999999999999 L 5.179324951171875 0.9809999999999999 L 5.179324951171875 1.005 L 4.798324951171875 1.005 M 6.43933447265625 1.0125 L 6.05533447265625 0.09299999999999986 L 5.95183447265625 0.038999999999999924 L 5.95183447265625 0.014999999999999902 L 6.34933447265625 0.014999999999999902 L 6.34933447265625 0.038999999999999924 L 6.21883447265625 0.09599999999999986 L 6.49933447265625 0.7709999999999999 L 6.50683447265625 0.7709999999999999 L 6.78433447265625 0.09149999999999991 L 6.65983447265625 0.038999999999999924 L 6.65983447265625 0.014999999999999902 L 6.97633447265625 0.014999999999999902 L 6.97633447265625 0.038999999999999924 L 6.89083447265625 0.08549999999999991 L 6.49933447265625 1.0125 L 6.43933447265625 1.0125 M 7.1202919921875 1.005 L 7.1202919921875 0.9809999999999999 L 7.2432919921875 0.9209999999999999 L 7.2432919921875 0.09899999999999987 L 7.1202919921875 0.038999999999999924 L 7.1202919921875 0.014999999999999902 L 7.5207919921875 0.014999999999999902 L 7.5207919921875 0.038999999999999924 L 7.3992919921875 0.09899999999999987 L 7.3992919921875 0.9209999999999999 L 7.5207919921875 0.9809999999999999 L 7.5207919921875 1.005 L 7.1202919921875 1.005 M 7.7068212890625 1.005 L 7.7068212890625 0.9809999999999999 L 7.8283212890625 0.9209999999999999 L 7.8283212890625 0.09899999999999987 L 7.7068212890625 0.038999999999999924 L 7.7068212890625 0.014999999999999902 L 8.1238212890625 0.014999999999999902 Q 8.2813212890625 0.014999999999999902 8.3720712890625 0.08024999999999982 Q 8.4628212890625 0.14549999999999985 8.4628212890625 0.25949999999999984 Q 8.4628212890625 0.3434999999999999 8.4058212890625 0.4079999999999999 Q 8.3488212890625 0.4724999999999999 8.2558212890625 0.5069999999999999 L 8.5393212890625 0.9254999999999999 L 8.6398212890625 0.9809999999999999 L 8.6398212890625 1.005 L 8.3983212890625 1.005 L 8.1103212890625 0.5489999999999999 L 7.9858212890625 0.5489999999999999 L 7.9858212890625 0.9194999999999999 L 8.0983212890625 0.9809999999999999 L 8.0983212890625 1.005 L 7.7068212890625 1.005 M 8.0743212890625 0.09749999999999992 L 7.9858212890625 0.09749999999999992 L 7.9858212890625 0.4694999999999999 L 8.0833212890625 0.4694999999999999 Q 8.1763212890625 0.4694999999999999 8.2370712890625 0.4162499999999999 Q 8.297821289062501 0.3629999999999999 8.297821289062501 0.28049999999999986 Q 8.297821289062501 0.19499999999999984 8.2385712890625 0.14624999999999988 Q 8.1793212890625 0.09749999999999992 8.0743212890625 0.09749999999999992 M 9.232359375 1.0199999999999998 Q 9.124359375 1.0199999999999998 9.032109375 0.9817499999999999 Q 8.939859375 0.9434999999999999 8.871609375 0.8752499999999999 Q 8.803359375 0.8069999999999999 8.765859375 0.714 Q 8.728359375 0.6209999999999999 8.728359375 0.5099999999999999 Q 8.728359375 0.3989999999999999 8.765859375 0.3059999999999998 Q 8.803359375 0.21299999999999986 8.871609375 0.14474999999999982 Q 8.939859375 0.0764999999999999 9.032109375 0.038249999999999895 Q 9.124359375 -2.220446049250313e-16 9.232359375 -2.220446049250313e-16 Q 9.340359375 -2.220446049250313e-16 9.432609375 0.038249999999999895 Q 9.524859375 0.0764999999999999 9.593109375000001 0.14474999999999982 Q 9.661359375 0.21299999999999986 9.699609375 0.3059999999999998 Q 9.737859375 0.3989999999999999 9.737859375 0.5099999999999999 Q 9.737859375 0.6209999999999999 9.699609375 0.714 Q 9.661359375 0.8069999999999999 9.593109375000001 0.8752499999999999 Q 9.524859375 0.9434999999999999 9.432609375 0.9817499999999999 Q 9.340359375 1.0199999999999998 9.232359375 1.0199999999999998 M 9.262359375 0.9449999999999998 Q 9.353859375 0.9449999999999998 9.422859375 0.8969999999999999 Q 9.491859375 0.8489999999999999 9.530859375 0.7619999999999999 Q 9.569859375 0.6749999999999998 9.569859375 0.5564999999999999 Q 9.569859375 0.4109999999999999 9.521859375 0.3022499999999999 Q 9.473859375 0.1934999999999999 9.391359375 0.13349999999999984 Q 9.308859375 0.0734999999999999 9.208359375 0.0734999999999999 Q 9.116859375 0.0734999999999999 9.046359375 0.12074999999999991 Q 8.975859375 0.16799999999999993 8.936109375000001 0.2549999999999999 Q 8.896359375 0.34199999999999986 8.896359375 0.4604999999999999 Q 8.896359375 0.6059999999999999 8.945109375 0.7154999999999999 Q 8.993859375 0.825 9.077109375 0.8849999999999999 Q 9.160359375 0.9449999999999998 9.262359375 0.9449999999999998 M 9.9193271484375 1.005 L 9.9193271484375 0.9809999999999999 L 10.0408271484375 0.9209999999999999 L 10.0408271484375 0.10199999999999987 L 9.9208271484375 0.038999999999999924 L 9.9208271484375 0.014999999999999902 L 10.1563271484375 0.014999999999999902 L 10.7308271484375 0.7214999999999998 L 10.7308271484375 0.09749999999999992 L 10.5763271484375 0.038999999999999924 L 10.5763271484375 0.014999999999999902 L 10.9558271484375 0.014999999999999902 L 10.9558271484375 0.038999999999999924 L 10.8358271484375 0.09749999999999992 L 10.8358271484375 1.0125 L 10.7713271484375 1.0125 L 10.1458271484375 0.24449999999999983 L 10.1458271484375 0.9224999999999999 L 10.3003271484375 0.9809999999999999 L 10.3003271484375 1.005 L 9.9193271484375 1.005 M 11.123794921875 1.005 L 11.123794921875 0.9809999999999999 L 11.243794921875 0.9209999999999999 L 11.275294921875 0.09899999999999987 L 11.146294921875 0.038999999999999924 L 11.146294921875 0.014999999999999902 L 11.444794921875 0.014999999999999902 L 11.780794921875 0.7904999999999999 L 12.115294921875 0.014999999999999902 L 12.401794921875 0.014999999999999902 L 12.401794921875 0.038999999999999924 L 12.274294921875 0.09449999999999992 L 12.299794921875 0.9209999999999999 L 12.407794921875 0.9809999999999999 L 12.407794921875 1.005 L 12.037294921875 1.005 L 12.037294921875 0.9809999999999999 L 12.149794921875 0.9224999999999999 L 12.134794921875 0.18899999999999983 L 11.780794921875 1.0125 L 11.708794921875 1.0125 L 11.357794921875 0.19799999999999984 L 11.338294921875 0.9224999999999999 L 11.462794921875 0.9809999999999999 L 11.462794921875 1.005 L 11.123794921875 1.005 M 12.5818212890625 1.005 L 12.5818212890625 0.9809999999999999 L 12.7033212890625 0.9209999999999999 L 12.7033212890625 0.09899999999999987 L 12.5818212890625 0.038999999999999924 L 12.5818212890625 0.014999999999999902 L 13.3348212890625 0.014999999999999902 L 13.3348212890625 0.2729999999999999 L 13.3108212890625 0.2729999999999999 L 13.2133212890625 0.09749999999999992 L 12.8608212890625 0.09749999999999992 L 12.8608212890625 0.45299999999999985 L 13.1098212890625 0.45299999999999985 L 13.1863212890625 0.32699999999999985 L 13.2103212890625 0.32699999999999985 L 13.2103212890625 0.6584999999999999 L 13.1863212890625 0.6584999999999999 L 13.1098212890625 0.5354999999999999 L 12.8608212890625 0.5354999999999999 L 12.8608212890625 0.9224999999999999 L 13.2538212890625 0.9224999999999999 L 13.3528212890625 0.7244999999999999 L 13.3768212890625 0.7244999999999999 L 13.3768212890625 1.005 L 12.5818212890625 1.005 M 13.564316162109375 1.005 L 13.564316162109375 0.9809999999999999 L 13.685816162109376 0.9209999999999999 L 13.685816162109376 0.10199999999999987 L 13.565816162109375 0.038999999999999924 L 13.565816162109375 0.014999999999999902 L 13.801316162109375 0.014999999999999902 L 14.375816162109375 0.7214999999999998 L 14.375816162109375 0.09749999999999992 L 14.221316162109375 0.038999999999999924 L 14.221316162109375 0.014999999999999902 L 14.600816162109375 0.014999999999999902 L 14.600816162109375 0.038999999999999924 L 14.480816162109376 0.09749999999999992 L 14.480816162109376 1.0125 L 14.416316162109375 1.0125 L 13.790816162109374 0.24449999999999983 L 13.790816162109374 0.9224999999999999 L 13.945316162109375 0.9809999999999999 L 13.945316162109375 1.005 L 13.564316162109375 1.005 M 14.965283935546875 1.005 L 14.965283935546875 0.9809999999999999 L 15.116783935546875 0.9209999999999999 L 15.116783935546875 0.09749999999999992 L 14.879783935546875 0.09749999999999992 L 14.773283935546875 0.32399999999999984 L 14.749283935546876 0.32399999999999984 L 14.749283935546876 0.014999999999999902 L 15.640283935546876 0.014999999999999902 L 15.640283935546876 0.32399999999999984 L 15.616283935546875 0.32399999999999984 L 15.511283935546874 0.09749999999999992 L 15.272783935546874 0.09749999999999992 L 15.272783935546874 0.9209999999999999 L 15.425783935546875 0.9809999999999999 L 15.425783935546875 1.005 L 14.965283935546875 1.005 M 15.70326416015625 1.005 L 15.70326416015625 0.9809999999999999 L 15.79776416015625 0.9314999999999999 L 16.18326416015625 0.00749999999999984 L 16.26576416015625 0.00749999999999984 L 16.64676416015625 0.9269999999999999 L 16.74726416015625 0.9809999999999999 L 16.74726416015625 1.005 L 16.35126416015625 1.005 L 16.35126416015625 0.9809999999999999 L 16.48326416015625 0.9284999999999999 L 16.37226416015625 0.6584999999999999 L 16.01076416015625 0.6584999999999999 L 15.90126416015625 0.9299999999999999 L 16.02726416015625 0.9809999999999999 L 16.02726416015625 1.005 L 15.70326416015625 1.005 M 16.04526416015625 0.5759999999999998 L 16.33926416015625 0.5759999999999998 L 16.19226416015625 0.2144999999999999 L 16.04526416015625 0.5759999999999998 M 16.882236328125 1.005 L 16.882236328125 0.9809999999999999 L 17.003736328125 0.9209999999999999 L 17.003736328125 0.09899999999999987 L 16.882236328125 0.038999999999999924 L 16.882236328125 0.014999999999999902 L 17.297736328125 0.014999999999999902 L 17.297736328125 0.038999999999999924 L 17.161236328125 0.09899999999999987 L 17.161236328125 0.9224999999999999 L 17.516736328125 0.9224999999999999 L 17.623236328125 0.6644999999999999 L 17.647236328125 0.6644999999999999 L 17.647236328125 1.005 L 16.882236328125 1.005" fill="#000000" fill-rule="nonzero"></path></g><g><path d=" M 6.345605895996094 1.8708749999999996 Q 6.299105895996094 1.8708749999999996 6.266855895996094 1.8622499999999995 Q 6.2346058959960935 1.8536249999999996 6.200105895996094 1.8363749999999996 L 6.192605895996094 1.7133749999999996 L 6.204605895996094 1.7133749999999996 L 6.241355895996094 1.7928749999999996 Q 6.268355895996094 1.8153749999999995 6.293855895996094 1.8254999999999995 Q 6.319355895996094 1.8356249999999996 6.345605895996094 1.8356249999999996 Q 6.389855895996094 1.8356249999999996 6.414980895996094 1.8123749999999996 Q 6.440105895996094 1.7891249999999996 6.440105895996094 1.7493749999999995 Q 6.440105895996094 1.7163749999999995 6.425480895996094 1.6976249999999995 Q 6.410855895996094 1.6788749999999997 6.383480895996094 1.6642499999999996 Q 6.356105895996094 1.6496249999999995 6.318605895996094 1.6308749999999996 Q 6.283355895996094 1.6128749999999996 6.2586058959960935 1.5956249999999996 Q 6.2338558959960935 1.5783749999999994 6.221105895996094 1.5554999999999994 Q 6.208355895996093 1.5326249999999995 6.208355895996093 1.4981249999999995 Q 6.208355895996093 1.4726249999999996 6.220730895996094 1.4482499999999996 Q 6.233105895996093 1.4238749999999996 6.254480895996093 1.4039999999999995 Q 6.275855895996094 1.3841249999999996 6.302480895996093 1.3724999999999996 Q 6.3291058959960935 1.3608749999999996 6.357605895996094 1.3608749999999996 Q 6.392105895996094 1.3608749999999996 6.4213558959960935 1.3691249999999995 Q 6.450605895996094 1.3773749999999996 6.481355895996094 1.3923749999999995 L 6.488855895996093 1.5123749999999996 L 6.476855895996094 1.5123749999999996 L 6.442355895996093 1.4336249999999995 Q 6.416105895996094 1.4141249999999996 6.396605895996093 1.4054999999999995 Q 6.377105895996094 1.3968749999999996 6.3516058959960935 1.3968749999999996 Q 6.318605895996094 1.3968749999999996 6.297230895996094 1.4193749999999996 Q 6.275855895996094 1.4418749999999996 6.275855895996094 1.4748749999999995 Q 6.275855895996094 1.5131249999999996 6.299105895996094 1.5344999999999995 Q 6.322355895996094 1.5558749999999995 6.371855895996093 1.5798749999999995 Q 6.417605895996093 1.6023749999999994 6.4468558959960935 1.6214999999999995 Q 6.476105895996094 1.6406249999999996 6.490355895996093 1.6653749999999996 Q 6.504605895996094 1.6901249999999997 6.504605895996094 1.7283749999999996 Q 6.504605895996094 1.7636249999999996 6.489605895996093 1.7902499999999995 Q 6.474605895996094 1.8168749999999996 6.450980895996094 1.8348749999999996 Q 6.427355895996094 1.8528749999999996 6.3992308959960935 1.8618749999999995 Q 6.371105895996093 1.8708749999999996 6.345605895996094 1.8708749999999996 M 6.594610290527344 1.8633749999999996 L 6.594610290527344 1.8513749999999995 L 6.654610290527343 1.8213749999999995 L 6.654610290527343 1.4103749999999995 L 6.594610290527344 1.3803749999999995 L 6.594610290527344 1.3683749999999995 L 6.9613602905273435 1.3683749999999995 L 6.9613602905273435 1.4973749999999995 L 6.949360290527344 1.4973749999999995 L 6.902860290527344 1.4096249999999997 L 6.722110290527343 1.4096249999999997 L 6.722110290527343 1.5873749999999995 L 6.849610290527344 1.5873749999999995 L 6.887110290527343 1.5251249999999996 L 6.899110290527344 1.5251249999999996 L 6.899110290527344 1.6893749999999996 L 6.887110290527343 1.6893749999999996 L 6.849610290527344 1.6286249999999995 L 6.722110290527343 1.6286249999999995 L 6.722110290527343 1.8221249999999996 L 6.923860290527344 1.8221249999999996 L 6.970360290527344 1.7268749999999995 L 6.982360290527343 1.7268749999999995 L 6.982360290527343 1.8633749999999996 L 6.594610290527344 1.8633749999999996 M 7.083593444824219 1.8633749999999996 L 7.083593444824219 1.8513749999999995 L 7.143593444824218 1.8213749999999995 L 7.143593444824218 1.4103749999999995 L 7.083593444824219 1.3803749999999995 L 7.083593444824219 1.3683749999999995 L 7.277093444824219 1.3683749999999995 Q 7.3558434448242185 1.3683749999999995 7.401218444824218 1.4009999999999996 Q 7.446593444824218 1.4336249999999995 7.446593444824218 1.4906249999999996 Q 7.446593444824218 1.5326249999999995 7.418093444824219 1.5659999999999996 Q 7.389593444824219 1.5993749999999995 7.342343444824219 1.6166249999999995 L 7.484843444824219 1.8243749999999996 L 7.534343444824219 1.8513749999999995 L 7.534343444824219 1.8633749999999996 L 7.4263434448242185 1.8633749999999996 L 7.280843444824219 1.6361249999999996 L 7.211093444824218 1.6361249999999996 L 7.211093444824218 1.8206249999999995 L 7.267343444824219 1.8513749999999995 L 7.267343444824219 1.8633749999999996 L 7.083593444824219 1.8633749999999996 M 7.259843444824218 1.4096249999999997 L 7.211093444824218 1.4096249999999997 L 7.211093444824218 1.5948749999999996 L 7.264343444824219 1.5948749999999996 Q 7.311593444824219 1.5948749999999996 7.342718444824219 1.5682499999999995 Q 7.373843444824219 1.5416249999999996 7.373843444824219 1.5003749999999996 Q 7.373843444824219 1.4583749999999995 7.343093444824219 1.4339999999999995 Q 7.312343444824219 1.4096249999999997 7.259843444824218 1.4096249999999997 M 7.775079528808594 1.8671249999999995 L 7.586079528808594 1.4066249999999996 L 7.534329528808594 1.3803749999999995 L 7.534329528808594 1.3683749999999995 L 7.721829528808594 1.3683749999999995 L 7.721829528808594 1.3803749999999995 L 7.657329528808594 1.4081249999999996 L 7.657329528808594 1.4118749999999995 L 7.797579528808594 1.7553749999999995 L 7.801329528808594 1.7553749999999995 L 7.940829528808594 1.4088749999999997 L 7.940829528808594 1.4058749999999995 L 7.879329528808594 1.3803749999999995 L 7.879329528808594 1.3683749999999995 L 8.036829528808594 1.3683749999999995 L 8.036829528808594 1.3803749999999995 L 7.9940795288085935 1.4028749999999994 L 7.801329528808594 1.8671249999999995 L 7.775079528808594 1.8671249999999995 M 8.115572204589844 1.8633749999999996 L 8.115572204589844 1.8513749999999995 L 8.175572204589844 1.8213749999999995 L 8.175572204589844 1.4103749999999995 L 8.115572204589844 1.3803749999999995 L 8.115572204589844 1.3683749999999995 L 8.303072204589844 1.3683749999999995 L 8.303072204589844 1.3803749999999995 L 8.243072204589843 1.4103749999999995 L 8.243072204589843 1.8213749999999995 L 8.303072204589844 1.8513749999999995 L 8.303072204589844 1.8633749999999996 L 8.115572204589844 1.8633749999999996 M 8.65558319091797 1.8708749999999996 Q 8.579083190917968 1.8708749999999996 8.523583190917968 1.8393749999999995 Q 8.46808319091797 1.8078749999999995 8.438083190917968 1.7534999999999996 Q 8.408083190917969 1.6991249999999996 8.408083190917969 1.6293749999999996 Q 8.408083190917969 1.5761249999999996 8.428708190917968 1.5277499999999995 Q 8.449333190917969 1.4793749999999997 8.484958190917968 1.4418749999999996 Q 8.520583190917968 1.4043749999999995 8.567458190917968 1.3826249999999995 Q 8.614333190917968 1.3608749999999996 8.666833190917968 1.3608749999999996 Q 8.70433319091797 1.3608749999999996 8.730583190917969 1.3657499999999996 Q 8.756833190917968 1.3706249999999995 8.777458190917969 1.3784999999999996 Q 8.79808319091797 1.3863749999999995 8.819083190917969 1.3968749999999996 L 8.822833190917969 1.5281249999999995 L 8.809333190917968 1.5281249999999995 L 8.763583190917968 1.4366249999999996 Q 8.735083190917969 1.4163749999999995 8.713708190917968 1.4073749999999996 Q 8.692333190917969 1.3983749999999995 8.665333190917968 1.3983749999999995 Q 8.61133319091797 1.3983749999999995 8.568958190917968 1.4253749999999996 Q 8.526583190917968 1.4523749999999995 8.502208190917969 1.4992499999999995 Q 8.477833190917968 1.5461249999999995 8.477833190917968 1.6068749999999996 Q 8.477833190917968 1.6781249999999996 8.501458190917969 1.7287499999999996 Q 8.525083190917968 1.7793749999999995 8.56520819091797 1.8059999999999996 Q 8.60533319091797 1.8326249999999995 8.65408319091797 1.8326249999999995 Q 8.69533319091797 1.8326249999999995 8.723458190917968 1.8209999999999995 Q 8.75158319091797 1.8093749999999995 8.773333190917969 1.7951249999999996 L 8.818333190917969 1.7148749999999995 L 8.831083190917969 1.7148749999999995 L 8.822833190917969 1.8341249999999996 Q 8.801083190917968 1.8453749999999995 8.778208190917969 1.8536249999999996 Q 8.755333190917968 1.8618749999999995 8.726083190917969 1.8663749999999995 Q 8.69683319091797 1.8708749999999996 8.65558319091797 1.8708749999999996 M 8.948843078613281 1.8633749999999996 L 8.948843078613281 1.8513749999999995 L 9.008843078613282 1.8213749999999995 L 9.008843078613282 1.4103749999999995 L 8.948843078613281 1.3803749999999995 L 8.948843078613281 1.3683749999999995 L 9.315593078613281 1.3683749999999995 L 9.315593078613281 1.4973749999999995 L 9.30359307861328 1.4973749999999995 L 9.25709307861328 1.4096249999999997 L 9.07634307861328 1.4096249999999997 L 9.07634307861328 1.5873749999999995 L 9.203843078613282 1.5873749999999995 L 9.241343078613282 1.5251249999999996 L 9.25334307861328 1.5251249999999996 L 9.25334307861328 1.6893749999999996 L 9.241343078613282 1.6893749999999996 L 9.203843078613282 1.6286249999999995 L 9.07634307861328 1.6286249999999995 L 9.07634307861328 1.8221249999999996 L 9.278093078613281 1.8221249999999996 L 9.324593078613281 1.7268749999999995 L 9.336593078613282 1.7268749999999995 L 9.336593078613282 1.8633749999999996 L 8.948843078613281 1.8633749999999996 M 9.587076232910157 1.8708749999999996 Q 9.540576232910157 1.8708749999999996 9.508326232910155 1.8622499999999995 Q 9.476076232910156 1.8536249999999996 9.441576232910156 1.8363749999999996 L 9.434076232910156 1.7133749999999996 L 9.446076232910157 1.7133749999999996 L 9.482826232910156 1.7928749999999996 Q 9.509826232910155 1.8153749999999995 9.535326232910156 1.8254999999999995 Q 9.560826232910156 1.8356249999999996 9.587076232910157 1.8356249999999996 Q 9.631326232910157 1.8356249999999996 9.656451232910156 1.8123749999999996 Q 9.681576232910157 1.7891249999999996 9.681576232910157 1.7493749999999995 Q 9.681576232910157 1.7163749999999995 9.666951232910156 1.6976249999999995 Q 9.652326232910156 1.6788749999999997 9.624951232910156 1.6642499999999996 Q 9.597576232910157 1.6496249999999995 9.560076232910156 1.6308749999999996 Q 9.524826232910156 1.6128749999999996 9.500076232910157 1.5956249999999996 Q 9.475326232910156 1.5783749999999994 9.462576232910155 1.5554999999999994 Q 9.449826232910157 1.5326249999999995 9.449826232910157 1.4981249999999995 Q 9.449826232910157 1.4726249999999996 9.462201232910155 1.4482499999999996 Q 9.474576232910156 1.4238749999999996 9.495951232910157 1.4039999999999995 Q 9.517326232910156 1.3841249999999996 9.543951232910157 1.3724999999999996 Q 9.570576232910156 1.3608749999999996 9.599076232910157 1.3608749999999996 Q 9.633576232910157 1.3608749999999996 9.662826232910156 1.3691249999999995 Q 9.692076232910157 1.3773749999999996 9.722826232910156 1.3923749999999995 L 9.730326232910157 1.5123749999999996 L 9.718326232910156 1.5123749999999996 L 9.683826232910157 1.4336249999999995 Q 9.657576232910156 1.4141249999999996 9.638076232910157 1.4054999999999995 Q 9.618576232910156 1.3968749999999996 9.593076232910157 1.3968749999999996 Q 9.560076232910156 1.3968749999999996 9.538701232910157 1.4193749999999996 Q 9.517326232910156 1.4418749999999996 9.517326232910156 1.4748749999999995 Q 9.517326232910156 1.5131249999999996 9.540576232910157 1.5344999999999995 Q 9.563826232910156 1.5558749999999995 9.613326232910156 1.5798749999999995 Q 9.659076232910156 1.6023749999999994 9.688326232910157 1.6214999999999995 Q 9.717576232910156 1.6406249999999996 9.731826232910157 1.6653749999999996 Q 9.746076232910156 1.6901249999999997 9.746076232910156 1.7283749999999996 Q 9.746076232910156 1.7636249999999996 9.731076232910157 1.7902499999999995 Q 9.716076232910156 1.8168749999999996 9.692451232910157 1.8348749999999996 Q 9.668826232910156 1.8528749999999996 9.640701232910157 1.8618749999999995 Q 9.612576232910156 1.8708749999999996 9.587076232910157 1.8708749999999996 M 10.027330627441406 1.8633749999999996 L 10.027330627441406 1.8513749999999995 L 10.087330627441407 1.8213749999999995 L 10.087330627441407 1.4103749999999995 L 10.027330627441406 1.3803749999999995 L 10.027330627441406 1.3683749999999995 L 10.214830627441406 1.3683749999999995 L 10.214830627441406 1.3803749999999995 L 10.154830627441406 1.4103749999999995 L 10.154830627441406 1.8213749999999995 L 10.214830627441406 1.8513749999999995 L 10.214830627441406 1.8633749999999996 L 10.027330627441406 1.8633749999999996 M 10.312341613769531 1.8633749999999996 L 10.312341613769531 1.8513749999999995 L 10.372341613769532 1.8213749999999995 L 10.372341613769532 1.4118749999999995 L 10.313091613769531 1.3803749999999995 L 10.313091613769531 1.3683749999999995 L 10.423341613769532 1.3683749999999995 L 10.709841613769532 1.7283749999999996 L 10.709841613769532 1.4088749999999997 L 10.634841613769531 1.3803749999999995 L 10.634841613769531 1.3683749999999995 L 10.821591613769531 1.3683749999999995 L 10.821591613769531 1.3803749999999995 L 10.76234161376953 1.4096249999999997 L 10.76234161376953 1.8671249999999995 L 10.734591613769531 1.8671249999999995 L 10.424841613769532 1.4763749999999995 L 10.424841613769532 1.8221249999999996 L 10.499841613769531 1.8513749999999995 L 10.499841613769531 1.8633749999999996 L 10.312341613769531 1.8633749999999996 M 11.166600036621094 1.8708749999999996 Q 11.090100036621093 1.8708749999999996 11.034600036621093 1.8393749999999995 Q 10.979100036621094 1.8078749999999995 10.949100036621093 1.7534999999999996 Q 10.919100036621094 1.6991249999999996 10.919100036621094 1.6293749999999996 Q 10.919100036621094 1.5761249999999996 10.939725036621093 1.5277499999999995 Q 10.960350036621094 1.4793749999999997 10.995975036621093 1.4418749999999996 Q 11.031600036621093 1.4043749999999995 11.078475036621093 1.3826249999999995 Q 11.125350036621093 1.3608749999999996 11.177850036621093 1.3608749999999996 Q 11.215350036621095 1.3608749999999996 11.241600036621094 1.3657499999999996 Q 11.267850036621093 1.3706249999999995 11.288475036621094 1.3784999999999996 Q 11.309100036621095 1.3863749999999995 11.330100036621094 1.3968749999999996 L 11.333850036621094 1.5281249999999995 L 11.320350036621093 1.5281249999999995 L 11.274600036621093 1.4366249999999996 Q 11.246100036621094 1.4163749999999995 11.224725036621093 1.4073749999999996 Q 11.203350036621094 1.3983749999999995 11.176350036621093 1.3983749999999995 Q 11.122350036621095 1.3983749999999995 11.079975036621093 1.4253749999999996 Q 11.037600036621093 1.4523749999999995 11.013225036621094 1.4992499999999995 Q 10.988850036621093 1.5461249999999995 10.988850036621093 1.6068749999999996 Q 10.988850036621093 1.6781249999999996 11.012475036621094 1.7287499999999996 Q 11.036100036621093 1.7793749999999995 11.076225036621095 1.8059999999999996 Q 11.116350036621094 1.8326249999999995 11.165100036621094 1.8326249999999995 Q 11.206350036621094 1.8326249999999995 11.234475036621093 1.8209999999999995 Q 11.262600036621095 1.8093749999999995 11.284350036621094 1.7951249999999996 L 11.329350036621094 1.7148749999999995 L 11.342100036621094 1.7148749999999995 L 11.333850036621094 1.8341249999999996 Q 11.312100036621093 1.8453749999999995 11.289225036621094 1.8536249999999996 Q 11.266350036621093 1.8618749999999995 11.237100036621094 1.8663749999999995 Q 11.207850036621094 1.8708749999999996 11.166600036621094 1.8708749999999996 M 11.504859924316406 1.8671249999999995 Q 11.486109924316406 1.8671249999999995 11.472609924316407 1.8536249999999996 Q 11.459109924316406 1.8401249999999996 11.459109924316406 1.8213749999999995 Q 11.459109924316406 1.8026249999999995 11.472609924316407 1.7891249999999996 Q 11.486109924316406 1.7756249999999996 11.504859924316406 1.7756249999999996 Q 11.523609924316407 1.7756249999999996 11.537109924316406 1.7891249999999996 Q 11.550609924316406 1.8026249999999995 11.550609924316406 1.8213749999999995 Q 11.550609924316406 1.8401249999999996 11.537109924316406 1.8536249999999996 Q 11.523609924316407 1.8671249999999995 11.504859924316406 1.8671249999999995" fill="#000000" fill-rule="nonzero"></path></g></g><defs><clipPath id="SvgjsClipPath9375"><path d=" M 1.1887710494402866 -13.783529350751405 h 15.368673721431927 v 13.533529350751405 h -15.368673721431927 Z"></path></clipPath><clipPath id="SvgjsClipPath93738d7bf97c-b44e-4cf5-8127-e8d9e6f14ca8"><path d=" M 1.1887710494402866 -13.783529350751403 L 16.557444770872213 -13.783529350751403 L 16.557444770872213 -0.25000000000000355 L 1.1887710494402866 -0.25000000000000355 Z"></path></clipPath><linearGradient id="gradient-184366d9-202f-429e-bf92-36cec901105f_0" x1="0" x2="1" y1="0" y2="1"><stop stop-color="#91a729" offset="0"></stop><stop stop-color="#3c3e31" offset="1"></stop></linearGradient><linearGradient id="gradient-184366d9-202f-429e-bf92-36cec901105f_1" x1="0" x2="1" y1="0" y2="1"><stop stop-color="#99b029" offset="0"></stop><stop stop-color="#464a30" offset="1"></stop></linearGradient><linearGradient id="gradient-184366d9-202f-429e-bf92-36cec901105f_2" x1="0" x2="1" y1="0" y2="1"><stop stop-color="#78882b" offset="0"></stop><stop stop-color="#69752d" offset="1"></stop></linearGradient></defs></svg>